<svg version="1.1" viewBox="0.0 0.0 960.0 720.0" fill="none" stroke="none" stroke-linecap="square" stroke-miterlimit="10" xmlns:xlink="http://www.w3.org/1999/xlink" xmlns="http://www.w3.org/2000/svg"><clipPath id="p.0"><path d="m0 0l960.0 0l0 720.0l-960.0 0l0 -720.0z" clip-rule="nonzero"/></clipPath><g clip-path="url(#p.0)"><path fill="#000000" fill-opacity="0.0" d="m0 0l960.0 0l0 720.0l-960.0 0z" fill-rule="evenodd"/><path fill="#ffffff" d="m-5.92126 -3.5538058l978.1417 0l0 734.2048l-978.1417 0z" fill-rule="evenodd"/><path stroke="#000000" stroke-width="1.0" stroke-linejoin="round" stroke-linecap="butt" d="m-5.92126 -3.5538058l978.1417 0l0 734.2048l-978.1417 0z" fill-rule="evenodd"/><path fill="#000000" fill-opacity="0.0" d="m180.17697 188.42035l216.91339 109.95276" fill-rule="evenodd"/><path stroke="#ff0000" stroke-width="4.0" stroke-linejoin="round" stroke-linecap="butt" d="m180.17697 188.42035l216.91339 109.95276" fill-rule="evenodd"/><path fill="#000000" fill-opacity="0.0" d="m181.95271 296.66177l213.82677 0.881897" fill-rule="evenodd"/><path stroke="#ff0000" stroke-width="4.0" stroke-linejoin="round" stroke-linecap="butt" d="m181.95271 296.66177l213.82677 0.881897" fill-rule="evenodd"/><path fill="#000000" fill-opacity="0.0" d="m181.06583 530.89185l214.70865 -233.35431" fill-rule="evenodd"/><path stroke="#ff0000" stroke-width="4.0" stroke-linejoin="round" stroke-linecap="butt" d="m181.06583 530.89185l214.70865 -233.35431" fill-rule="evenodd"/><path fill="#000000" fill-opacity="0.0" d="m781.7321 530.89185l-386.83466 -233.35431" fill-rule="evenodd"/><path stroke="#ff0000" stroke-width="4.0" stroke-linejoin="round" stroke-linecap="butt" d="m781.7321 530.89185l-386.83466 -233.35431" fill-rule="evenodd"/><path fill="#000000" fill-opacity="0.0" d="m782.7095 191.25793l-387.2441 106.33072" fill-rule="evenodd"/><path stroke="#ff0000" stroke-width="4.0" stroke-linejoin="round" stroke-linecap="butt" d="m782.7095 191.25793l-387.2441 106.33072" fill-rule="evenodd"/><path fill="#000000" fill-opacity="0.0" d="m676.80023 297.58813l-281.32288 0" fill-rule="evenodd"/><path stroke="#ff0000" stroke-width="4.0" stroke-linejoin="round" stroke-linecap="butt" d="m676.80023 297.58813l-281.32288 0" fill-rule="evenodd"/><path fill="#000000" fill-opacity="0.0" d="m676.2965 296.88654l106.04724 -106.04724" fill-rule="evenodd"/><path stroke="#ff0000" stroke-width="4.0" stroke-linejoin="round" stroke-linecap="butt" d="m676.2965 296.88654l106.04724 -106.04724" fill-rule="evenodd"/><path fill="#000000" fill-opacity="0.0" d="m676.5438 297.23734l105.29138 234.11026" fill-rule="evenodd"/><path stroke="#ff0000" stroke-width="4.0" stroke-linejoin="round" stroke-linecap="butt" d="m676.5438 297.23734l105.29138 234.11026" fill-rule="evenodd"/><path fill="#000000" fill-opacity="0.0" d="m180.6214 189.13023l-0.50393677 342.42517" fill-rule="evenodd"/><path stroke="#ff0000" stroke-width="4.0" stroke-linejoin="round" stroke-linecap="butt" d="m180.6214 189.13023l-0.50393677 342.42517" fill-rule="evenodd"/><path fill="#000000" fill-opacity="0.0" d="m179.73451 189.3072l602.9921 0.9763794" fill-rule="evenodd"/><path stroke="#ff0000" stroke-width="4.0" stroke-linejoin="round" stroke-linecap="butt" d="m179.73451 189.3072l602.9921 0.9763794" fill-rule="evenodd"/><path fill="#000000" fill-opacity="0.0" d="m780.40076 530.35895l-598.9291 0.881897" fill-rule="evenodd"/><path stroke="#ff0000" stroke-width="4.0" stroke-linejoin="round" stroke-linecap="butt" d="m780.40076 530.35895l-598.9291 0.881897" fill-rule="evenodd"/><path fill="#000000" fill-opacity="0.0" d="m781.8206 530.80334l0.50390625 -340.37793" fill-rule="evenodd"/><path stroke="#ff0000" stroke-width="4.0" stroke-linejoin="round" stroke-linecap="butt" d="m781.8206 530.80334l0.50390625 -340.37793" fill-rule="evenodd"/><path fill="#000000" fill-opacity="0.0" d="m307.69028 331.05112l0 0c0 -34.015533 27.575043 -61.590576 61.590576 -61.590576l0 0c16.334808 0 32.00061 6.4890137 43.551086 18.03946c11.550476 11.550476 18.03946 27.216278 18.03946 43.551117l0 0c0 34.015503 -27.575043 61.590546 -61.590546 61.590546l0 0c-34.015533 0 -61.590576 -27.575043 -61.590576 -61.590546z" fill-rule="evenodd"/><path stroke="#ff0000" stroke-width="4.0" stroke-linejoin="round" stroke-linecap="butt" d="m307.69028 331.05112l0 0c0 -34.015533 27.575043 -61.590576 61.590576 -61.590576l0 0c16.334808 0 32.00061 6.4890137 43.551086 18.03946c11.550476 11.550476 18.03946 27.216278 18.03946 43.551117l0 0c0 34.015503 -27.575043 61.590546 -61.590546 61.590546l0 0c-34.015533 0 -61.590576 -27.575043 -61.590576 -61.590546z" fill-rule="evenodd"/><path fill="#000000" fill-opacity="0.0" d="m273.4438 231.79214l0 0c0 -17.690506 14.340973 -32.031494 32.031494 -32.031494l0 0c8.49527 0 16.642609 3.3747406 22.649689 9.381805c6.0070496 6.00708 9.381805 14.154404 9.381805 22.649689l0 0c0 17.690506 -14.341003 32.031494 -32.031494 32.031494l0 0c-17.690521 0 -32.031494 -14.340988 -32.031494 -32.031494z" fill-rule="evenodd"/><path stroke="#ff0000" stroke-width="4.0" stroke-linejoin="round" stroke-linecap="butt" d="m273.4438 231.79214l0 0c0 -17.690506 14.340973 -32.031494 32.031494 -32.031494l0 0c8.49527 0 16.642609 3.3747406 22.649689 9.381805c6.0070496 6.00708 9.381805 14.154404 9.381805 22.649689l0 0c0 17.690506 -14.341003 32.031494 -32.031494 32.031494l0 0c-17.690521 0 -32.031494 -14.340988 -32.031494 -32.031494z" fill-rule="evenodd"/><path fill="#000000" fill-opacity="0.0" d="m489.62192 489.82095l0 0c0 -17.69049 14.341003 -32.031494 32.031525 -32.031494l0 0c8.495239 0 16.642578 3.3747253 22.649658 9.381805c6.00708 6.00708 9.381836 14.154419 9.381836 22.649689l0 0c0 17.690521 -14.341003 32.031525 -32.031494 32.031525l0 0c-17.690521 0 -32.031525 -14.341003 -32.031525 -32.031525z" fill-rule="evenodd"/><path stroke="#ff0000" stroke-width="4.0" stroke-linejoin="round" stroke-linecap="butt" d="m489.62192 489.82095l0 0c0 -17.69049 14.341003 -32.031494 32.031525 -32.031494l0 0c8.495239 0 16.642578 3.3747253 22.649658 9.381805c6.00708 6.00708 9.381836 14.154419 9.381836 22.649689l0 0c0 17.690521 -14.341003 32.031525 -32.031494 32.031525l0 0c-17.690521 0 -32.031525 -14.341003 -32.031525 -32.031525z" fill-rule="evenodd"/><path fill="#000000" fill-opacity="0.0" d="m684.9497 311.8461l0 0c0 -18.438477 14.947327 -33.385803 33.385803 -33.385803l0 0c8.854492 0 17.346313 3.5174255 23.60736 9.778473c6.2610474 6.2610474 9.778503 14.752869 9.778503 23.60733l0 0c0 18.438507 -14.947388 33.385834 -33.385864 33.385834l0 0c-18.438477 0 -33.385803 -14.947327 -33.385803 -33.385834z" fill-rule="evenodd"/><path stroke="#ff0000" stroke-width="4.0" stroke-linejoin="round" stroke-linecap="butt" d="m684.9497 311.8461l0 0c0 -18.438477 14.947327 -33.385803 33.385803 -33.385803l0 0c8.854492 0 17.346313 3.5174255 23.60736 9.778473c6.2610474 6.2610474 9.778503 14.752869 9.778503 23.60733l0 0c0 18.438507 -14.947388 33.385834 -33.385864 33.385834l0 0c-18.438477 0 -33.385803 -14.947327 -33.385803 -33.385834z" fill-rule="evenodd"/><path fill="#000000" fill-opacity="0.0" d="m609.0857 188.42914l0 0c0 -94.75815 76.81665 -171.57481 171.57477 -171.57481l0 0c45.504456 0 89.1452 18.076578 121.32172 50.253098c32.176514 32.176514 50.253113 75.81724 50.253113 121.32171l0 0c0 94.75815 -76.81665 171.5748 -171.57483 171.5748l0 0c-94.75812 0 -171.57477 -76.81665 -171.57477 -171.5748z" fill-rule="evenodd"/><path stroke="#000000" stroke-width="4.0" stroke-linejoin="round" stroke-linecap="butt" d="m609.0857 188.42914l0 0c0 -94.75815 76.81665 -171.57481 171.57477 -171.57481l0 0c45.504456 0 89.1452 18.076578 121.32172 50.253098c32.176514 32.176514 50.253113 75.81724 50.253113 121.32171l0 0c0 94.75815 -76.81665 171.5748 -171.57483 171.5748l0 0c-94.75812 0 -171.57477 -76.81665 -171.57477 -171.5748z" fill-rule="evenodd"/><path fill="#000000" fill-opacity="0.0" d="m609.0857 531.5702l0 0c0 -94.75812 76.81665 -171.57477 171.57477 -171.57477l0 0c45.504456 0 89.1452 18.076569 121.32172 50.253082c32.176514 32.176514 50.253113 75.81726 50.253113 121.321686l0 0c0 94.75818 -76.81665 171.57483 -171.57483 171.57483l0 0c-94.75812 0 -171.57477 -76.81665 -171.57477 -171.57483z" fill-rule="evenodd"/><path stroke="#000000" stroke-width="4.0" stroke-linejoin="round" stroke-linecap="butt" d="m609.0857 531.5702l0 0c0 -94.75812 76.81665 -171.57477 171.57477 -171.57477l0 0c45.504456 0 89.1452 18.076569 121.32172 50.253082c32.176514 32.176514 50.253113 75.81726 50.253113 121.321686l0 0c0 94.75818 -76.81665 171.57483 -171.57483 171.57483l0 0c-94.75812 0 -171.57477 -76.81665 -171.57477 -171.57483z" fill-rule="evenodd"/><path fill="#000000" fill-opacity="0.0" d="m10.05514 188.42914l0 0c0 -94.75815 76.81666 -171.57481 171.5748 -171.57481l0 0c45.50447 0 89.1452 18.076578 121.32172 50.253098c32.176514 32.176514 50.253082 75.81724 50.253082 121.32171l0 0c0 94.75815 -76.81665 171.5748 -171.5748 171.5748l0 0c-94.75815 0 -171.5748 -76.81665 -171.5748 -171.5748z" fill-rule="evenodd"/><path stroke="#000000" stroke-width="4.0" stroke-linejoin="round" stroke-linecap="butt" d="m10.05514 188.42914l0 0c0 -94.75815 76.81666 -171.57481 171.5748 -171.57481l0 0c45.50447 0 89.1452 18.076578 121.32172 50.253098c32.176514 32.176514 50.253082 75.81724 50.253082 121.32171l0 0c0 94.75815 -76.81665 171.5748 -171.5748 171.5748l0 0c-94.75815 0 -171.5748 -76.81665 -171.5748 -171.5748z" fill-rule="evenodd"/><path fill="#000000" fill-opacity="0.0" d="m7.7638006 531.5702l0 0c0 -94.75812 76.81666 -171.57477 171.57481 -171.57477l0 0c45.504456 0 89.14519 18.076569 121.3217 50.253082c32.176514 32.176514 50.253113 75.81726 50.253113 121.321686l0 0c0 94.75818 -76.81668 171.57483 -171.57481 171.57483l0 0c-94.75815 0 -171.57481 -76.81665 -171.57481 -171.57483z" fill-rule="evenodd"/><path stroke="#000000" stroke-width="4.0" stroke-linejoin="round" stroke-linecap="butt" d="m7.7638006 531.5702l0 0c0 -94.75812 76.81666 -171.57477 171.57481 -171.57477l0 0c45.504456 0 89.14519 18.076569 121.3217 50.253082c32.176514 32.176514 50.253113 75.81726 50.253113 121.321686l0 0c0 94.75818 -76.81668 171.57483 -171.57481 171.57483l0 0c-94.75815 0 -171.57481 -76.81665 -171.57481 -171.57483z" fill-rule="evenodd"/><path fill="#000000" fill-opacity="0.0" d="m326.97473 296.35342l0 0c0 -37.24228 30.190796 -67.433075 67.433075 -67.433075l0 0c17.884338 0 35.036224 7.104538 47.682373 19.750687c12.646149 12.646164 19.750671 29.79802 19.750671 47.68239l0 0c0 37.24225 -30.190796 67.433075 -67.433044 67.433075l0 0c-37.24228 0 -67.433075 -30.190826 -67.433075 -67.433075z" fill-rule="evenodd"/><path stroke="#000000" stroke-width="4.0" stroke-linejoin="round" stroke-linecap="butt" d="m326.97473 296.35342l0 0c0 -37.24228 30.190796 -67.433075 67.433075 -67.433075l0 0c17.884338 0 35.036224 7.104538 47.682373 19.750687c12.646149 12.646164 19.750671 29.79802 19.750671 47.68239l0 0c0 37.24225 -30.190796 67.433075 -67.433044 67.433075l0 0c-37.24228 0 -67.433075 -30.190826 -67.433075 -67.433075z" fill-rule="evenodd"/><path fill="#000000" fill-opacity="0.0" d="m179.73587 311.84274l0 0" fill-rule="evenodd"/><path stroke="#ff0000" stroke-width="4.0" stroke-linejoin="round" stroke-linecap="butt" d="m179.73587 311.84274l0 0" fill-rule="evenodd"/><path fill="#000000" fill-opacity="0.0" d="m282.16602 376.8446l0 0c0 -22.047913 17.852203 -39.921265 39.873993 -39.921265l0 0c10.575256 0 20.717377 4.205963 28.19519 11.692657c7.477844 7.4866943 11.678833 17.640808 11.678833 28.228607l0 0c0 22.047882 -17.852203 39.921265 -39.874023 39.921265l0 0c-22.02179 0 -39.873993 -17.873383 -39.873993 -39.921265z" fill-rule="evenodd"/><path stroke="#000000" stroke-width="4.0" stroke-linejoin="round" stroke-linecap="butt" d="m282.16602 376.8446l0 0c0 -22.047913 17.852203 -39.921265 39.873993 -39.921265l0 0c10.575256 0 20.717377 4.205963 28.19519 11.692657c7.477844 7.4866943 11.678833 17.640808 11.678833 28.228607l0 0c0 22.047882 -17.852203 39.921265 -39.874023 39.921265l0 0c-22.02179 0 -39.873993 -17.873383 -39.873993 -39.921265z" fill-rule="evenodd"/><path fill="#000000" fill-opacity="0.0" d="m447.14374 231.79155l0 0c0 -45.51349 36.895966 -82.409454 82.409424 -82.409454l0 0c21.856384 0 42.817505 8.682404 58.272278 24.137177c15.454773 15.454773 24.137207 36.415924 24.137207 58.272278l0 0c0 45.513474 -36.895996 82.40944 -82.409485 82.40944l0 0c-45.51346 0 -82.409424 -36.895966 -82.409424 -82.40944z" fill-rule="evenodd"/><path stroke="#000000" stroke-width="4.0" stroke-linejoin="round" stroke-linecap="butt" d="m447.14374 231.79155l0 0c0 -45.51349 36.895966 -82.409454 82.409424 -82.409454l0 0c21.856384 0 42.817505 8.682404 58.272278 24.137177c15.454773 15.454773 24.137207 36.415924 24.137207 58.272278l0 0c0 45.513474 -36.895996 82.40944 -82.409485 82.40944l0 0c-45.51346 0 -82.409424 -36.895966 -82.409424 -82.40944z" fill-rule="evenodd"/><path fill="#000000" fill-opacity="0.0" d="m402.85898 429.59528l0 0c0 -61.864594 50.151184 -112.01575 112.01578 -112.01575l0 0c29.708435 0 58.200073 11.801605 79.20709 32.808655c21.007019 21.007019 32.808655 49.498657 32.808655 79.20709l0 0c0 61.864594 -50.151184 112.01575 -112.01575 112.01575l0 0c-61.864594 0 -112.01578 -50.151154 -112.01578 -112.01575z" fill-rule="evenodd"/><path stroke="#000000" stroke-width="4.0" stroke-linejoin="round" stroke-linecap="butt" d="m402.85898 429.59528l0 0c0 -61.864594 50.151184 -112.01575 112.01578 -112.01575l0 0c29.708435 0 58.200073 11.801605 79.20709 32.808655c21.007019 21.007019 32.808655 49.498657 32.808655 79.20709l0 0c0 61.864594 -50.151184 112.01575 -112.01575 112.01575l0 0c-61.864594 0 -112.01578 -50.151154 -112.01578 -112.01575z" fill-rule="evenodd"/><path fill="#000000" fill-opacity="0.0" d="m342.27975 595.626l0 0c0 -43.121643 34.893585 -78.078735 77.93701 -78.078735l0 0c20.670166 0 40.493744 8.226135 55.10977 22.868774c14.616028 14.642578 22.82724 34.502197 22.82724 55.20996l0 0c0 43.121704 -34.893585 78.0788 -77.93701 78.0788l0 0c-43.043427 0 -77.93701 -34.957092 -77.93701 -78.0788z" fill-rule="evenodd"/><path stroke="#000000" stroke-width="4.0" stroke-linejoin="round" stroke-linecap="butt" d="m342.27975 595.626l0 0c0 -43.121643 34.893585 -78.078735 77.93701 -78.078735l0 0c20.670166 0 40.493744 8.226135 55.10977 22.868774c14.616028 14.642578 22.82724 34.502197 22.82724 55.20996l0 0c0 43.121704 -34.893585 78.0788 -77.93701 78.0788l0 0c-43.043427 0 -77.93701 -34.957092 -77.93701 -78.0788z" fill-rule="evenodd"/><path fill="#000000" fill-opacity="0.0" d="m350.90598 173.8385l0 0c0 -30.414795 24.656067 -55.07087 55.07086 -55.07087l0 0c14.605713 0 28.61319 5.8020935 38.94098 16.12989c10.327789 10.327789 16.129883 24.335281 16.129883 38.94098l0 0c0 30.414795 -24.656067 55.07086 -55.07086 55.07086l0 0c-30.414795 0 -55.07086 -24.656067 -55.07086 -55.07086z" fill-rule="evenodd"/><path stroke="#000000" stroke-width="4.0" stroke-linejoin="round" stroke-linecap="butt" d="m350.90598 173.8385l0 0c0 -30.414795 24.656067 -55.07087 55.07086 -55.07087l0 0c14.605713 0 28.61319 5.8020935 38.94098 16.12989c10.327789 10.327789 16.129883 24.335281 16.129883 38.94098l0 0c0 30.414795 -24.656067 55.07086 -55.07086 55.07086l0 0c-30.414795 0 -55.07086 -24.656067 -55.07086 -55.07086z" fill-rule="evenodd"/><path fill="#000000" fill-opacity="0.0" d="m405.97684 118.76763l0 12.976372" fill-rule="evenodd"/><path stroke="#000000" stroke-width="4.0" stroke-linejoin="round" stroke-linecap="butt" d="m405.97684 118.76763l0 12.976372" fill-rule="evenodd"/><path fill="#000000" fill-opacity="0.0" d="m780.65674 16.854334l0 12.9763775" fill-rule="evenodd"/><path stroke="#000000" stroke-width="4.0" stroke-linejoin="round" stroke-linecap="butt" d="m780.65674 16.854334l0 12.9763775" fill-rule="evenodd"/><path fill="#000000" fill-opacity="0.0" d="m176.48346 16.854334l0 12.9763775" fill-rule="evenodd"/><path stroke="#000000" stroke-width="4.0" stroke-linejoin="round" stroke-linecap="butt" d="m176.48346 16.854334l0 12.9763775" fill-rule="evenodd"/><path fill="#000000" fill-opacity="0.0" d="m529.55615 149.3821l0 12.976379" fill-rule="evenodd"/><path stroke="#000000" stroke-width="4.0" stroke-linejoin="round" stroke-linecap="butt" d="m529.55615 149.3821l0 12.976379" fill-rule="evenodd"/><path fill="#000000" fill-opacity="0.0" d="m514.8763 527.8713l0 12.976379" fill-rule="evenodd"/><path stroke="#000000" stroke-width="4.0" stroke-linejoin="round" stroke-linecap="butt" d="m514.8763 527.8713l0 12.976379" fill-rule="evenodd"/><path fill="#000000" fill-opacity="0.0" d="m322.04993 403.3468l0 12.976379" fill-rule="evenodd"/><path stroke="#000000" stroke-width="4.0" stroke-linejoin="round" stroke-linecap="butt" d="m322.04993 403.3468l0 12.976379" fill-rule="evenodd"/><path fill="#000000" fill-opacity="0.0" d="m782.29834 690.12976l0 12.976379" fill-rule="evenodd"/><path stroke="#000000" stroke-width="4.0" stroke-linejoin="round" stroke-linecap="butt" d="m782.29834 690.12976l0 12.976379" fill-rule="evenodd"/><path fill="#000000" fill-opacity="0.0" d="m420.21265 660.7296l0 12.976379" fill-rule="evenodd"/><path stroke="#000000" stroke-width="4.0" stroke-linejoin="round" stroke-linecap="butt" d="m420.21265 660.7296l0 12.976379" fill-rule="evenodd"/><path fill="#000000" fill-opacity="0.0" d="m176.48346 690.12976l0 12.976379" fill-rule="evenodd"/><path stroke="#000000" stroke-width="4.0" stroke-linejoin="round" stroke-linecap="butt" d="m176.48346 690.12976l0 12.976379" fill-rule="evenodd"/><path fill="#000000" fill-opacity="0.0" d="m576.79803 318.1743l0 0c0 -21.578247 17.464417 -39.07086 39.007874 -39.07086l0 0c10.34552 0 20.267334 4.116394 27.582703 11.4436035c7.3154297 7.3272095 11.425171 17.265015 11.425171 27.627258l0 0c0 21.578247 -17.464417 39.07086 -39.007874 39.07086l0 0c-21.543457 0 -39.007874 -17.492615 -39.007874 -39.07086z" fill-rule="evenodd"/><path stroke="#000000" stroke-width="4.0" stroke-linejoin="round" stroke-linecap="butt" d="m576.79803 318.1743l0 0c0 -21.578247 17.464417 -39.07086 39.007874 -39.07086l0 0c10.34552 0 20.267334 4.116394 27.582703 11.4436035c7.3154297 7.3272095 11.425171 17.265015 11.425171 27.627258l0 0c0 21.578247 -17.464417 39.07086 -39.007874 39.07086l0 0c-21.543457 0 -39.007874 -17.492615 -39.007874 -39.07086z" fill-rule="evenodd"/><path fill="#000000" fill-opacity="0.0" d="m615.8059 357.24515l0 0" fill-rule="evenodd"/><path stroke="#ff0000" stroke-width="4.0" stroke-linejoin="round" stroke-linecap="butt" d="m615.8059 357.24515l0 0" fill-rule="evenodd"/><path fill="#000000" fill-opacity="0.0" d="m615.8184 344.24518l0 12.976379" fill-rule="evenodd"/><path stroke="#000000" stroke-width="4.0" stroke-linejoin="round" stroke-linecap="butt" d="m615.8184 344.24518l0 12.976379" fill-rule="evenodd"/></g></svg>